<?xml version="1.0" standalone="no"?>
<!DOCTYPE svg PUBLIC "-//W3C//DTD SVG 20010904//EN"
 "http://www.w3.org/TR/2001/REC-SVG-20010904/DTD/svg10.dtd">
<svg version="1.0" xmlns="http://www.w3.org/2000/svg"
 width="500.000000pt" height="500.000000pt" viewBox="0 0 500.000000 500.000000"
 preserveAspectRatio="xMidYMid meet">
<metadata>
Created by potrace 1.11, written by Peter Selinger 2001-2013
</metadata>
<g transform="translate(0.000000,500.000000) scale(0.100000,-0.100000)"
fill="#000000" stroke="none">
<path d="M0 2500 l0 -2500 2500 0 2500 0 0 2500 0 2500 -2500 0 -2500 0 0
-2500z m2400 700 l0 -170 -265 0 -265 0 0 -655 0 -655 -220 0 -220 0 0 655 0
655 -267 2 -268 3 -3 168 -2 167 755 0 755 0 0 -170z m530 -155 l0 -325 310 0
310 0 0 325 0 325 220 0 220 0 0 -825 0 -825 -220 0 -220 0 0 330 0 330 -310
0 -310 0 0 -330 0 -330 -220 0 -220 0 0 825 0 825 220 0 220 0 0 -325z"/>
</g>
</svg>
