<?xml version="1.0" encoding="UTF-8"?>
<svg xmlns="http://www.w3.org/2000/svg" xmlns:xlink="http://www.w3.org/1999/xlink" width="25px" height="25px" viewBox="0 0 25 25" version="1.1">
  <g id="surface1">
    <path d="M 24.527344 9.316406 C 24.71875 9.164062 25 9.308594 25 9.546875 L 25 19.53125 C 25 20.824219 23.949219 21.875 22.65625 21.875 L 2.34375 21.875 C 1.050781 21.875 0 20.824219 0 19.53125 L 0 9.550781 C 0 9.304688 0.277344 9.171875 0.472656 9.320312 C 1.566406 10.171875 3.015625 11.25 7.996094 14.867188 C 9.027344 15.621094 10.765625 17.203125 12.5 17.191406 C 14.242188 17.207031 16.015625 15.589844 17.007812 14.867188 C 21.988281 11.25 23.433594 10.164062 24.527344 9.316406 Z M 12.5 15.625 C 13.632812 15.644531 15.265625 14.199219 16.085938 13.605469 C 22.5625 8.902344 23.054688 8.492188 24.550781 7.320312 C 24.835938 7.101562 25 6.757812 25 6.398438 L 25 5.46875 C 25 4.175781 23.949219 3.125 22.65625 3.125 L 2.34375 3.125 C 1.050781 3.125 0 4.175781 0 5.46875 L 0 6.398438 C 0 6.757812 0.164062 7.09375 0.449219 7.320312 C 1.941406 8.484375 2.4375 8.902344 8.914062 13.605469 C 9.734375 14.199219 11.367188 15.644531 12.5 15.625 Z M 12.5 15.625 "/>
  </g>
</svg>
