<?xml version="1.0" encoding="UTF-8"?>
<svg width="25px" height="25px" viewBox="0 0 25 25" version="1.1" xmlns="http://www.w3.org/2000/svg" xmlns:xlink="http://www.w3.org/1999/xlink">
    <g stroke="none" stroke-width="1" fill="none" fill-rule="evenodd">
        <path d="M0,8.89423077 L0,1.44230769 C0,0.643028846 0.643028846,0 1.44230769,0 L8.89423077,0 C9.29086538,0 9.61538462,0.324519231 9.61538462,0.721153846 L9.61538462,3.125 C9.61538462,3.52163462 9.29086538,3.84615385 8.89423077,3.84615385 L3.84615385,3.84615385 L3.84615385,8.89423077 C3.84615385,9.29086538 3.52163462,9.61538462 3.125,9.61538462 L0.721153846,9.61538462 C0.324519231,9.61538462 0,9.29086538 0,8.89423077 Z M15.3846154,0.721153846 L15.3846154,3.125 C15.3846154,3.52163462 15.7091346,3.84615385 16.1057692,3.84615385 L21.1538462,3.84615385 L21.1538462,8.89423077 C21.1538462,9.29086538 21.4783654,9.61538462 21.875,9.61538462 L24.2788462,9.61538462 C24.6754808,9.61538462 25,9.29086538 25,8.89423077 L25,1.44230769 C25,0.643028846 24.3569712,0 23.5576923,0 L16.1057692,0 C15.7091346,0 15.3846154,0.324519231 15.3846154,0.721153846 Z M24.2788462,15.3846154 L21.875,15.3846154 C21.4783654,15.3846154 21.1538462,15.7091346 21.1538462,16.1057692 L21.1538462,21.1538462 L16.1057692,21.1538462 C15.7091346,21.1538462 15.3846154,21.4783654 15.3846154,21.875 L15.3846154,24.2788462 C15.3846154,24.6754808 15.7091346,25 16.1057692,25 L23.5576923,25 C24.3569712,25 25,24.3569712 25,23.5576923 L25,16.1057692 C25,15.7091346 24.6754808,15.3846154 24.2788462,15.3846154 Z M9.61538462,24.2788462 L9.61538462,21.875 C9.61538462,21.4783654 9.29086538,21.1538462 8.89423077,21.1538462 L3.84615385,21.1538462 L3.84615385,16.1057692 C3.84615385,15.7091346 3.52163462,15.3846154 3.125,15.3846154 L0.721153846,15.3846154 C0.324519231,15.3846154 0,15.7091346 0,16.1057692 L0,23.5576923 C0,24.3569712 0.643028846,25 1.44230769,25 L8.89423077,25 C9.29086538,25 9.61538462,24.6754808 9.61538462,24.2788462 Z" fill="#FFFFFF" fill-rule="nonzero"></path>
    </g>
</svg>
