<?xml version="1.0" encoding="UTF-8"?>
<svg width="25px" height="25px" viewBox="0 0 25 25" version="1.1" xmlns="http://www.w3.org/2000/svg" xmlns:xlink="http://www.w3.org/1999/xlink">
    <!-- Generator: Sketch 59.1 (86144) - https://sketch.com -->
    <title>link</title>
    <desc>Created with Sketch.</desc>
    <g id="link" stroke="none" stroke-width="1" fill="none" fill-rule="evenodd">
        <path d="M9.34115755,19.8138752 L8.05052318,21.0751869 C6.93173958,22.1664412 5.11216193,22.1673825 3.994016,21.0751869 C3.45646423,20.5502679 3.16122524,19.8530951 3.16122524,19.111996 C3.16122524,18.3708969 3.45678306,17.6734103 3.99369716,17.1484913 L8.74430292,12.5101899 C9.72885799,11.5494594 11.5809566,10.1347194 12.9308938,11.4521941 C13.5503856,12.0577492 14.5508823,12.0536703 15.1659103,11.4443501 C15.7812573,10.8350298 15.7774313,9.8501399 15.1579395,9.24521227 C12.8633013,7.00434449 9.47187892,7.41850656 6.5182137,10.3025806 L1.76728911,14.9411957 C0.627462559,16.0547269 2.84217094e-14,17.53567 2.84217094e-14,19.111996 C2.84217094e-14,20.6883219 0.627462559,22.1689513 1.76760794,23.2824825 C2.94059308,24.4277033 4.48087338,25 6.02179134,25 C7.56302813,25 9.1039461,24.4277033 10.2775689,23.2818549 L11.5691598,22.0202294 C12.1883327,21.4153018 12.1918398,20.4307256 11.5764929,19.8210916 C10.9621025,19.2120851 9.9606493,19.2086338 9.34115755,19.8138752 Z M23.2317905,1.86376979 C20.7672648,-0.501317451 17.3213923,-0.62959337 15.0398728,1.5597312 L13.4310763,3.10428427 C12.8115972,3.69910217 12.8077713,4.6664136 13.4231056,5.26554848 C14.03844,5.86468336 15.0389163,5.86807527 15.6583954,5.27325737 L17.2665542,3.72962937 C18.4484426,2.5945725 19.9960244,3.06512311 21.0054278,4.03366796 C21.5436063,4.54954684 21.8391581,5.23502128 21.8391581,5.96335714 C21.8391581,6.69200136 21.5432875,7.3774758 21.0060655,7.89335467 L15.9376871,12.7561221 C13.6201402,14.9799825 12.5329432,13.9361988 12.0690512,13.4909334 C11.4495721,12.8961155 10.4494147,12.8998158 9.83408029,13.4986423 C9.21874593,14.0974688 9.22257184,15.0653969 9.84205094,15.6599065 C10.9059736,16.6811801 12.1203822,17.1875 13.3934548,17.1875 C14.9521956,17.1875 16.5986136,16.4283286 18.1640497,14.9250952 L23.2324281,10.0623278 C24.3719126,8.96797384 25,7.51222718 25,5.96304878 C25,4.4144871 24.3719126,2.95874043 23.2317905,1.86376979 Z" id="Link" fill="#FFFFFF" fill-rule="nonzero" transform="translate(12.500000, 12.500000) rotate(-360.000000) translate(-12.500000, -12.500000) "></path>
    </g>
</svg>