<?xml version="1.0" encoding="UTF-8"?>
<svg width="25px" height="25px" viewBox="0 0 25 25" version="1.1" xmlns="http://www.w3.org/2000/svg" xmlns:xlink="http://www.w3.org/1999/xlink">
    <!-- Generator: Sketch 59.1 (86144) - https://sketch.com -->
    <title>rss</title>
    <desc>Created with Sketch.</desc>
    <g id="rss" stroke="none" stroke-width="1" fill="none" fill-rule="evenodd">
        <path d="M7.147371,21.4262388 C7.147371,23.3999492 5.54737239,24.9999442 3.5736576,24.9999442 C1.5999428,24.9999442 0,23.3999492 0,21.4262388 C0,19.4525284 1.5999986,17.8525334 3.5737134,17.8525334 C5.5474282,17.8525334 7.147371,19.4525842 7.147371,21.4262388 L7.147371,21.4262388 Z M16.9498178,24.0629493 C16.4836352,15.435744 9.57342915,8.51684805 0.93699695,8.05016423 C0.42723177,8.02259735 0,8.43219429 0,8.94268378 L0,11.6250973 C0,12.0946829 0.362164863,12.4884875 0.830747043,12.5189562 C7.0713666,12.9254281 12.0736502,17.9152564 12.4809601,24.1691432 C12.5114846,24.6377243 12.9052901,24.9998884 13.3748209,24.9998884 L16.0572405,24.9998884 C16.5677869,24.9998884 16.9773847,24.5727134 16.9498178,24.0629493 Z M24.9994202,24.0790207 C24.5310054,11.0310702 14.0326328,0.471281509 0.920925536,0.000579845322 C0.417019725,-0.0175004557 0,0.389585334 0,0.893769037 L0,3.57612678 C0,4.05743109 0.381417078,4.44917094 0.862331837,4.46892535 C11.5307935,4.90636819 20.0937325,13.4709063 20.5311205,24.1376701 C20.5508191,24.6185838 20.9425599,25 21.423921,25 L24.1062848,25 C24.6104138,25 25.0175005,24.5829254 24.9994202,24.0790207 L24.9994202,24.0790207 Z" id="Shape" fill="#FFFFFF" fill-rule="nonzero"></path>
    </g>
</svg>