<?xml version="1.0" encoding="UTF-8"?>
<svg width="25px" height="25px" viewBox="0 0 25 25" version="1.1" xmlns="http://www.w3.org/2000/svg" xmlns:xlink="http://www.w3.org/1999/xlink">
    <g stroke="none" stroke-width="1" fill="none" fill-rule="evenodd">
        <path d="M22.4302634,7.98435685 C22.4461326,8.20309641 22.4461326,8.42188406 22.4461326,8.64062361 C22.4461326,15.3124686 17.2906925,23 7.86804831,23 C4.96510729,23 2.26841706,22.171839 0,20.7344007 C0.412452783,20.781246 0.808987535,20.7968771 1.23730952,20.7968771 C3.63258255,20.7968771 5.83757163,20.0000265 7.59836952,18.6406477 C5.34582166,18.5937543 3.45811898,17.1406368 2.80772581,15.1406224 C3.12501221,15.1874677 3.44224977,15.2187299 3.77540537,15.2187299 C4.23541694,15.2187299 4.69547733,15.1562054 5.12375048,15.0468838 C2.77603623,14.5780943 1.01518951,12.5468657 1.01518951,10.0937411 L1.01518951,10.0312647 C1.69727225,10.4062674 2.49048824,10.640638 3.33116536,10.6718522 C1.95108184,9.76558363 1.04692792,8.21872753 1.04692792,6.46871491 C1.04692792,5.53123219 1.30068867,4.671857 1.74487986,3.92185159 C4.26710651,6.98434964 8.05838109,8.98431597 12.3096184,9.20310362 C12.2303212,8.82810091 12.1827136,8.43751518 12.1827136,8.04688135 C12.1827136,5.26559926 14.4669999,3 17.3064641,3 C18.781714,3 20.1141899,3.60937338 21.0501311,4.59374947 C22.2080946,4.37500992 23.3184993,3.95311384 24.3020481,3.37500271 C23.9212848,4.5469042 23.1122973,5.53128029 22.0495002,6.1562367 C23.0806077,6.04691502 24.0799769,5.76560287 25,5.37501713 C24.3021457,6.37497625 23.4296325,7.26556559 22.4302634,7.98435685 Z" fill="#FFFFFF" fill-rule="nonzero"></path>
    </g>
</svg>
