<svg id="Layer_1" data-name="Layer 1" xmlns="http://www.w3.org/2000/svg" viewBox="0 0 24 24" stroke-width="2" width="24" height="24"><defs><style>.cls-637b8b31f95e86b59c57a2a1-1{fill:none;stroke:currentColor;stroke-miterlimit:10;}</style></defs><line class="cls-637b8b31f95e86b59c57a2a1-1" x1="12" y1="0.5" x2="12" y2="2.42"></line><line class="cls-637b8b31f95e86b59c57a2a1-1" x1="12" y1="21.58" x2="12" y2="23.5"></line><line class="cls-637b8b31f95e86b59c57a2a1-1" x1="23.5" y1="12" x2="21.58" y2="12"></line><line class="cls-637b8b31f95e86b59c57a2a1-1" x1="2.42" y1="12" x2="0.5" y2="12"></line><line class="cls-637b8b31f95e86b59c57a2a1-1" x1="12" y1="0.5" x2="12" y2="2.42"></line><line class="cls-637b8b31f95e86b59c57a2a1-1" x1="12" y1="21.58" x2="12" y2="23.5"></line><line class="cls-637b8b31f95e86b59c57a2a1-1" x1="23.5" y1="12" x2="21.58" y2="12"></line><line class="cls-637b8b31f95e86b59c57a2a1-1" x1="2.42" y1="12" x2="0.5" y2="12"></line><line class="cls-637b8b31f95e86b59c57a2a1-1" x1="20.13" y1="3.87" x2="18.78" y2="5.22"></line><line class="cls-637b8b31f95e86b59c57a2a1-1" x1="5.22" y1="18.78" x2="3.87" y2="20.13"></line><line class="cls-637b8b31f95e86b59c57a2a1-1" x1="20.13" y1="20.13" x2="18.78" y2="18.78"></line><line class="cls-637b8b31f95e86b59c57a2a1-1" x1="5.22" y1="5.22" x2="3.87" y2="3.87"></line><line class="cls-637b8b31f95e86b59c57a2a1-1" x1="20.13" y1="3.87" x2="18.78" y2="5.22"></line><line class="cls-637b8b31f95e86b59c57a2a1-1" x1="5.22" y1="18.78" x2="3.87" y2="20.13"></line><line class="cls-637b8b31f95e86b59c57a2a1-1" x1="20.13" y1="20.13" x2="18.78" y2="18.78"></line><line class="cls-637b8b31f95e86b59c57a2a1-1" x1="5.22" y1="5.22" x2="3.87" y2="3.87"></line><circle class="cls-637b8b31f95e86b59c57a2a1-1" cx="12" cy="12" r="6.71"></circle></svg>