<svg id="Layer_1" data-name="Layer 1" xmlns="http://www.w3.org/2000/svg" viewBox="0 0 24 24" stroke-width="2" width="24" height="24"><defs><style>.cls-637b8512f95e86b59c57a13a-1{fill:none;stroke:currentColor;stroke-miterlimit:10;}</style></defs><path class="cls-637b8512f95e86b59c57a13a-1" d="M8.5,17c-2.73-.52-4.33-1.56-5-3"></path><path class="cls-637b8512f95e86b59c57a13a-1" d="M4.5,10c-1.15-1.92-1.7-5.38-1-6,3.1,2.5,6.12,4.09,9,4,0,0,0-5,4-5a4.38,4.38,0,0,1,3,1h3l-1,3a13.47,13.47,0,0,1-4,11c-5,5-13,4-16,0"></path><path class="cls-637b8512f95e86b59c57a13a-1" d="M5.5,14a7.57,7.57,0,0,1-3-5"></path></svg>